<svg width="40" height="30" viewBox="0 0 40 30" fill="none" xmlns="http://www.w3.org/2000/svg">
<g id="&#240;&#159;&#166;&#134; icon &#34;newspaper&#34;">
<path id="Vector" d="M5.86957 0V25.7609C5.86957 26.1933 5.69779 26.608 5.39202 26.9138C5.08626 27.2195 4.67155 27.3913 4.23913 27.3913C3.80671 27.3913 3.392 27.2195 3.08624 26.9138C2.78047 26.608 2.6087 26.1933 2.6087 25.7609V6.52174H0V25.7609C0.00127302 26.8848 0.448303 27.9623 1.24302 28.757C2.03773 29.5517 3.11523 29.9987 4.23913 30H34.8913C36.0152 29.9987 37.0927 29.5517 37.8874 28.757C38.6821 27.9623 39.1292 26.8848 39.1304 25.7609V0H5.86957ZM36.5217 25.7609C36.5212 26.1931 36.3493 26.6076 36.0436 26.9132C35.738 27.2189 35.3236 27.3908 34.8913 27.3913H8.15217C8.36801 26.8749 8.47886 26.3206 8.47826 25.7609V2.6087H36.5217V25.7609Z" fill="white"/>
<path id="Vector_2" d="M22.8261 5.21741H11.087V18.2609H22.8261V5.21741ZM20.2174 15.6522H13.6957V7.8261H20.2174V15.6522Z" fill="white"/>
<path id="Vector_3" d="M33.9131 5.21741H25.4348V7.8261H33.9131V5.21741Z" fill="white"/>
<path id="Vector_4" d="M33.9131 10.4348H25.4348V13.0435H33.9131V10.4348Z" fill="white"/>
<path id="Vector_5" d="M33.9131 15.6522H25.4348V18.2609H33.9131V15.6522Z" fill="white"/>
</g>
</svg>
