<svg width="43" height="30" viewBox="0 0 43 30" fill="none" xmlns="http://www.w3.org/2000/svg">
<g id="&#240;&#159;&#166;&#134; icon &#34;Users&#34;">
<path id="Vector" d="M6.42857 12.8571C8.79241 12.8571 10.7143 10.9353 10.7143 8.57143C10.7143 6.20759 8.79241 4.28571 6.42857 4.28571C4.06473 4.28571 2.14286 6.20759 2.14286 8.57143C2.14286 10.9353 4.06473 12.8571 6.42857 12.8571ZM36.4286 12.8571C38.7924 12.8571 40.7143 10.9353 40.7143 8.57143C40.7143 6.20759 38.7924 4.28571 36.4286 4.28571C34.0647 4.28571 32.1429 6.20759 32.1429 8.57143C32.1429 10.9353 34.0647 12.8571 36.4286 12.8571ZM38.5714 15H34.2857C33.1071 15 32.0424 15.4754 31.2656 16.2455C33.9643 17.7254 35.8795 20.3973 36.2946 23.5714H40.7143C41.8996 23.5714 42.8571 22.6138 42.8571 21.4286V19.2857C42.8571 16.9219 40.9353 15 38.5714 15ZM21.4286 15C25.5737 15 28.9286 11.6451 28.9286 7.5C28.9286 3.35491 25.5737 0 21.4286 0C17.2835 0 13.9286 3.35491 13.9286 7.5C13.9286 11.6451 17.2835 15 21.4286 15ZM26.5714 17.1429H26.0156C24.6228 17.8125 23.0759 18.2143 21.4286 18.2143C19.7812 18.2143 18.2411 17.8125 16.8415 17.1429H16.2857C12.0268 17.1429 8.57143 20.5982 8.57143 24.8571V26.7857C8.57143 28.5603 10.0112 30 11.7857 30H31.0714C32.846 30 34.2857 28.5603 34.2857 26.7857V24.8571C34.2857 20.5982 30.8304 17.1429 26.5714 17.1429ZM11.5915 16.2455C10.8147 15.4754 9.75 15 8.57143 15H4.28571C1.92188 15 0 16.9219 0 19.2857V21.4286C0 22.6138 0.957589 23.5714 2.14286 23.5714H6.5558C6.97768 20.3973 8.89286 17.7254 11.5915 16.2455Z" fill="white"/>
</g>
</svg>
