<svg width="27" height="27" viewBox="0 0 27 27" fill="none" xmlns="http://www.w3.org/2000/svg">
<g id="&#240;&#159;&#166;&#134; icon &#34;message&#34;">
<path id="Vector" d="M20.25 0H6.75C3.024 0 0 3.0105 0 6.723V14.796V16.146C0 19.8585 3.024 22.869 6.75 22.869H8.775C9.1395 22.869 9.6255 23.112 9.855 23.409L11.88 26.0955C12.771 27.2835 14.229 27.2835 15.12 26.0955L17.145 23.409C17.4015 23.0715 17.8065 22.869 18.225 22.869H20.25C23.976 22.869 27 19.8585 27 16.146V6.723C27 3.0105 23.976 0 20.25 0ZM8.1 13.5C7.344 13.5 6.75 12.8925 6.75 12.15C6.75 11.4075 7.3575 10.8 8.1 10.8C8.8425 10.8 9.45 11.4075 9.45 12.15C9.45 12.8925 8.856 13.5 8.1 13.5ZM13.5 13.5C12.744 13.5 12.15 12.8925 12.15 12.15C12.15 11.4075 12.7575 10.8 13.5 10.8C14.2425 10.8 14.85 11.4075 14.85 12.15C14.85 12.8925 14.256 13.5 13.5 13.5ZM18.9 13.5C18.144 13.5 17.55 12.8925 17.55 12.15C17.55 11.4075 18.1575 10.8 18.9 10.8C19.6425 10.8 20.25 11.4075 20.25 12.15C20.25 12.8925 19.656 13.5 18.9 13.5Z" fill="white"/>
</g>
</svg>
