<svg width="27" height="30" viewBox="0 0 27 30" fill="none" xmlns="http://www.w3.org/2000/svg">
<g id="&#240;&#159;&#166;&#134; icon &#34;Alternate Calendar&#34;">
<path id="Vector" d="M8.67187 16.875H6.32812C5.94141 16.875 5.625 16.5586 5.625 16.1719V13.8281C5.625 13.4414 5.94141 13.125 6.32812 13.125H8.67187C9.05859 13.125 9.375 13.4414 9.375 13.8281V16.1719C9.375 16.5586 9.05859 16.875 8.67187 16.875ZM15 16.1719V13.8281C15 13.4414 14.6836 13.125 14.2969 13.125H11.9531C11.5664 13.125 11.25 13.4414 11.25 13.8281V16.1719C11.25 16.5586 11.5664 16.875 11.9531 16.875H14.2969C14.6836 16.875 15 16.5586 15 16.1719ZM20.625 16.1719V13.8281C20.625 13.4414 20.3086 13.125 19.9219 13.125H17.5781C17.1914 13.125 16.875 13.4414 16.875 13.8281V16.1719C16.875 16.5586 17.1914 16.875 17.5781 16.875H19.9219C20.3086 16.875 20.625 16.5586 20.625 16.1719ZM15 21.7969V19.4531C15 19.0664 14.6836 18.75 14.2969 18.75H11.9531C11.5664 18.75 11.25 19.0664 11.25 19.4531V21.7969C11.25 22.1836 11.5664 22.5 11.9531 22.5H14.2969C14.6836 22.5 15 22.1836 15 21.7969ZM9.375 21.7969V19.4531C9.375 19.0664 9.05859 18.75 8.67187 18.75H6.32812C5.94141 18.75 5.625 19.0664 5.625 19.4531V21.7969C5.625 22.1836 5.94141 22.5 6.32812 22.5H8.67187C9.05859 22.5 9.375 22.1836 9.375 21.7969ZM20.625 21.7969V19.4531C20.625 19.0664 20.3086 18.75 19.9219 18.75H17.5781C17.1914 18.75 16.875 19.0664 16.875 19.4531V21.7969C16.875 22.1836 17.1914 22.5 17.5781 22.5H19.9219C20.3086 22.5 20.625 22.1836 20.625 21.7969ZM26.25 6.5625V27.1875C26.25 28.7402 24.9902 30 23.4375 30H2.8125C1.25977 30 0 28.7402 0 27.1875V6.5625C0 5.00977 1.25977 3.75 2.8125 3.75H5.625V0.703125C5.625 0.316406 5.94141 0 6.32812 0H8.67187C9.05859 0 9.375 0.316406 9.375 0.703125V3.75H16.875V0.703125C16.875 0.316406 17.1914 0 17.5781 0H19.9219C20.3086 0 20.625 0.316406 20.625 0.703125V3.75H23.4375C24.9902 3.75 26.25 5.00977 26.25 6.5625ZM23.4375 26.8359V9.375H2.8125V26.8359C2.8125 27.0293 2.9707 27.1875 3.16406 27.1875H23.0859C23.2793 27.1875 23.4375 27.0293 23.4375 26.8359Z" fill="white"/>
</g>
</svg>
