<svg width="40" height="43" viewBox="0 0 40 43" fill="none" xmlns="http://www.w3.org/2000/svg">
<g id="carbon:result">
<path id="Vector" d="M31.25 6.69091H27.5V5.36958C27.5 4.6687 27.2366 3.99653 26.7678 3.50093C26.2989 3.00534 25.663 2.72691 25 2.72691H15C14.337 2.72691 13.7011 3.00534 13.2322 3.50093C12.7634 3.99653 12.5 4.6687 12.5 5.36958V6.69091H8.75C8.08696 6.69091 7.45107 6.96933 6.98223 7.46493C6.51339 7.96052 6.25 8.63269 6.25 9.33357V37.0815C6.25 37.7824 6.51339 38.4546 6.98223 38.9502C7.45107 39.4458 8.08696 39.7242 8.75 39.7242H31.25C31.913 39.7242 32.5489 39.4458 33.0178 38.9502C33.4866 38.4546 33.75 37.7824 33.75 37.0815V9.33357C33.75 8.63269 33.4866 7.96052 33.0178 7.46493C32.5489 6.96933 31.913 6.69091 31.25 6.69091ZM15 5.36958H25V10.6549H15V5.36958ZM31.25 37.0815H8.75V9.33357H12.5V13.2976H27.5V9.33357H31.25V37.0815Z" fill="white"/>
<path id="Vector_2" d="M17.5 30.4749H27.5V33.1175H17.5V30.4749ZM12.5 30.4749H15V33.1175H12.5V30.4749ZM17.5 23.8682H27.5V26.5109H17.5V23.8682ZM12.5 23.8682H15V26.5109H12.5V23.8682ZM17.5 17.2616H27.5V19.9042H17.5V17.2616ZM12.5 17.2616H15V19.9042H12.5V17.2616Z" fill="white"/>
</g>
</svg>
