<svg width="28" height="32" viewBox="0 0 28 32" fill="none" xmlns="http://www.w3.org/2000/svg">
<g id="&#240;&#159;&#166;&#134; icon &#34;bell&#34;">
<path id="Vector" d="M13.6875 31.2856C15.8457 31.2856 17.5963 29.5349 17.5963 27.3749H9.77862C9.77862 29.5349 11.5293 31.2856 13.6875 31.2856ZM26.8488 22.1376C25.6683 20.8691 23.4593 18.9608 23.4593 12.7098C23.4593 7.96194 20.1304 4.16123 15.6416 3.22877V1.95535C15.6416 0.87563 14.7666 0 13.6875 0C12.6084 0 11.7334 0.87563 11.7334 1.95535V3.22877C7.24461 4.16123 3.91563 7.96194 3.91563 12.7098C3.91563 18.9608 1.7067 20.8691 0.526153 22.1376C0.159525 22.5317 -0.00301299 23.0028 4.2247e-05 23.4642C0.00676376 24.4663 0.79318 25.4195 1.9615 25.4195H25.4135C26.5818 25.4195 27.3688 24.4663 27.3749 23.4642C27.378 23.0028 27.2154 22.5311 26.8488 22.1376Z" fill="white"/>
</g>
</svg>
