<svg width="32" height="30" viewBox="0 0 32 30" fill="none" xmlns="http://www.w3.org/2000/svg">
<g id="&#240;&#159;&#166;&#134; icon &#34;home&#34;">
<path id="Vector" d="M14.7026 0.398332C14.9915 0.141725 15.3646 0 15.751 0C16.1375 0 16.5105 0.141725 16.7995 0.398332L31.0106 13.0304C31.3076 13.3126 31.4834 13.6992 31.5007 14.1086C31.5179 14.5179 31.3754 14.918 31.1032 15.2242C30.831 15.5305 30.4504 15.7189 30.0418 15.7497C29.6333 15.7806 29.2287 15.6514 28.9136 15.3894L28.3831 14.9205V26.842C28.3831 27.6795 28.0504 28.4828 27.4581 29.075C26.8659 29.6673 26.0626 30 25.2251 30H6.27698C5.43942 30 4.63617 29.6673 4.04393 29.075C3.45168 28.4828 3.11897 27.6795 3.11897 26.842V14.9205L2.58842 15.3894C2.27334 15.6514 1.86879 15.7806 1.46022 15.7497C1.05165 15.7189 0.671055 15.5305 0.398844 15.2242C0.126633 14.918 -0.015881 14.5179 0.0014076 14.1086C0.0186962 13.6992 0.194434 13.3126 0.491496 13.0304L14.7026 0.398332ZM6.27698 12.1098V26.842H11.014V18.9469C11.014 18.5282 11.1804 18.1265 11.4765 17.8304C11.7726 17.5343 12.1742 17.3679 12.593 17.3679H18.909C19.3278 17.3679 19.7295 17.5343 20.0256 17.8304C20.3217 18.1265 20.4881 18.5282 20.4881 18.9469V26.842H25.2251V12.1114L15.751 3.69056L6.27698 12.1098ZM17.33 26.842V20.5259H14.172V26.842H17.33Z" fill="white"/>
</g>
</svg>
