<svg width="33" height="30" viewBox="0 0 33 30" fill="none" xmlns="http://www.w3.org/2000/svg">
<g id="&#240;&#159;&#166;&#134; icon &#34;briefcase&#34;">
<path id="Vector" d="M30 5H23.7488V3.75C23.7476 2.75579 23.3522 1.80262 22.6492 1.09961C21.9462 0.396591 20.993 0.00113725 19.9988 0H12.4988C11.5046 0.00113725 10.5514 0.396591 9.84838 1.09961C9.14537 1.80262 8.74992 2.75579 8.74878 3.75V5H2.5C1.83719 5.00076 1.20175 5.26439 0.73307 5.73307C0.264393 6.20175 0.000758028 6.83719 0 7.5V27.5C0.000758028 28.1628 0.264393 28.7983 0.73307 29.2669C1.20175 29.7356 1.83719 29.9992 2.5 30H30C30.6628 29.9992 31.2983 29.7356 31.7669 29.2669C32.2356 28.7983 32.4992 28.1628 32.5 27.5V7.5C32.4992 6.83719 32.2356 6.20175 31.7669 5.73307C31.2983 5.26439 30.6628 5.00076 30 5ZM11.2488 3.75C11.2492 3.4186 11.381 3.10087 11.6153 2.86654C11.8497 2.6322 12.1674 2.50038 12.4988 2.5H19.9988C20.3302 2.50038 20.6479 2.6322 20.8822 2.86654C21.1166 3.10087 21.2484 3.4186 21.2488 3.75V5H11.2488V3.75ZM30 7.5L30.0005 14.0009C25.7809 16.298 21.053 17.5009 16.2488 17.5C11.4456 17.5009 6.71882 16.2985 2.5 14.0025V7.5H30ZM30 27.5H2.5V16.8183C6.78073 18.9123 11.4833 20.0006 16.2488 20C21.0154 20.0006 25.7192 18.9118 30.0007 16.8167L30.0015 27.4999L30 27.5ZM13.1238 13.75C13.1238 13.4185 13.2555 13.1006 13.4899 12.8661C13.7243 12.6317 14.0423 12.5 14.3738 12.5H18.1238C18.4553 12.5 18.7732 12.6317 19.0077 12.8661C19.2421 13.1005 19.3738 13.4185 19.3738 13.75C19.3738 14.0815 19.2421 14.3995 19.0077 14.6339C18.7732 14.8683 18.4553 15 18.1238 15H14.3738C14.0423 15 13.7243 14.8683 13.4899 14.6339C13.2555 14.3994 13.1238 14.0815 13.1238 13.75Z" fill="white"/>
</g>
</svg>
