<svg width="45" height="45" viewBox="0 0 45 45" fill="none" xmlns="http://www.w3.org/2000/svg">
<g id="&#240;&#159;&#166;&#134; icon &#34;Task&#34;">
<path id="Vector" d="M19.6875 28.3781L14.6391 23.3297L12.6562 25.3125L19.6875 32.3437L32.3438 19.6875L30.3609 17.6906L19.6875 28.3781Z" fill="white"/>
<path id="Vector_2" d="M35.1562 7.03125H30.9375V5.625C30.9375 4.87908 30.6412 4.16371 30.1137 3.63626C29.5863 3.10882 28.8709 2.8125 28.125 2.8125H16.875C16.1291 2.8125 15.4137 3.10882 14.8863 3.63626C14.3588 4.16371 14.0625 4.87908 14.0625 5.625V7.03125H9.84375C9.09783 7.03125 8.38246 7.32757 7.85501 7.85501C7.32757 8.38246 7.03125 9.09783 7.03125 9.84375V39.375C7.03125 40.1209 7.32757 40.8363 7.85501 41.3637C8.38246 41.8912 9.09783 42.1875 9.84375 42.1875H35.1562C35.9022 42.1875 36.6175 41.8912 37.145 41.3637C37.6724 40.8363 37.9688 40.1209 37.9688 39.375V9.84375C37.9688 9.09783 37.6724 8.38246 37.145 7.85501C36.6175 7.32757 35.9022 7.03125 35.1562 7.03125ZM16.875 5.625H28.125V11.25H16.875V5.625ZM35.1562 39.375H9.84375V9.84375H14.0625V14.0625H30.9375V9.84375H35.1562V39.375Z" fill="white"/>
</g>
</svg>
