<svg width="43" height="43" viewBox="0 0 43 43" fill="none" xmlns="http://www.w3.org/2000/svg">
<g id="&#240;&#159;&#166;&#134; icon &#34;cog&#34;">
<path id="Vector" d="M18.8003 0L16.1222 6.37391C15.5866 6.53459 15.1045 6.8024 14.6225 7.07021L8.24858 4.3921L4.3921 8.24858L7.07021 14.6225C6.8024 15.1581 6.58815 15.5866 6.3739 16.1222L0 18.8003V24.1566L6.3739 26.8347C6.58815 27.3703 6.8024 27.7988 7.07021 28.3344L4.3921 34.7083L8.24858 38.5648L14.6225 35.8867C15.1045 36.1009 15.5866 36.3688 16.1222 36.583L18.8003 42.9569H24.1566L26.8347 36.583C27.3167 36.3688 27.8524 36.1545 28.3344 35.8867L34.7083 38.5648L38.5648 34.7083L35.8867 28.3344C36.1009 27.8524 36.3688 27.3167 36.583 26.8347L42.9569 24.1566V18.8003L36.583 16.1222C36.4223 15.6402 36.1545 15.1045 35.8867 14.6225L38.5648 8.24858L34.7083 4.3921L28.3344 7.07021C27.8524 6.85597 27.3167 6.58815 26.8347 6.37391L24.1566 0L18.8003 0ZM21.4785 13.3906C25.9241 13.3906 29.5128 16.9792 29.5128 21.4249C29.5128 25.8706 25.9241 29.4592 21.4785 29.4592C17.0328 29.4592 13.4441 25.8706 13.4441 21.4249C13.4441 16.9792 17.0328 13.3906 21.4785 13.3906Z" fill="white"/>
</g>
</svg>
