<svg width="39" height="35" viewBox="0 0 39 35" fill="none" xmlns="http://www.w3.org/2000/svg">
<g id="&#240;&#159;&#166;&#134; icon &#34;Chat&#34;">
<path id="Vector" fill-rule="evenodd" clip-rule="evenodd" d="M14.0972 0C6.31157 0 0 6.31157 0 14.0972C0 31.5972 23.3333 35 23.3333 35V28.1944H24.7917C32.5773 28.1944 38.8889 21.8829 38.8889 14.0972C38.8889 6.31157 32.5773 0 24.7917 0H14.0972ZM19.4444 17.0139C20.7868 17.0139 21.875 15.9257 21.875 14.5833C21.875 13.241 20.7868 12.1528 19.4444 12.1528C18.1021 12.1528 17.0139 13.241 17.0139 14.5833C17.0139 15.9257 18.1021 17.0139 19.4444 17.0139ZM29.6528 14.5833C29.6528 15.9257 28.5646 17.0139 27.2222 17.0139C25.8799 17.0139 24.7917 15.9257 24.7917 14.5833C24.7917 13.241 25.8799 12.1528 27.2222 12.1528C28.5646 12.1528 29.6528 13.241 29.6528 14.5833ZM11.6667 17.0139C13.009 17.0139 14.0972 15.9257 14.0972 14.5833C14.0972 13.241 13.009 12.1528 11.6667 12.1528C10.3243 12.1528 9.23611 13.241 9.23611 14.5833C9.23611 15.9257 10.3243 17.0139 11.6667 17.0139Z" fill="white"/>
</g>
</svg>
