<svg width="27" height="38" viewBox="0 0 27 38" fill="none" xmlns="http://www.w3.org/2000/svg">
<path id="Vector" d="M24.3 38H2.7C1.98413 37.9993 1.29779 37.7131 0.791601 37.2042C0.285408 36.6953 0.000714794 36.0054 0 35.2857V2.71429C0.000714794 1.99463 0.285408 1.30466 0.791601 0.795789C1.29779 0.286918 1.98413 0.000718575 2.7 0H24.3C25.0159 0.000718575 25.7022 0.286918 26.2084 0.795789C26.7146 1.30466 26.9993 1.99463 27 2.71429V25.2673L20.25 21.8744L13.5 25.2673V2.71429H2.7V35.2857H24.3V29.8571H27V35.2857C26.9989 36.0053 26.7141 36.695 26.208 37.2038C25.7019 37.7126 25.0158 37.9989 24.3 38ZM20.25 18.8399L24.3 20.8756V2.71429H16.2V20.8756L20.25 18.8399Z" fill="white"/>
</svg>
