<svg width="30" height="30" viewBox="0 0 30 30" fill="none" xmlns="http://www.w3.org/2000/svg">
<g id="&#240;&#159;&#166;&#134; icon &#34;heart&#34;">
<path id="Vector" d="M14.5664 25.4912C14.4066 25.4921 14.2483 25.4615 14.1004 25.4011C13.9525 25.3407 13.818 25.2516 13.7045 25.1391L4.27284 15.6953C3.08976 14.4999 2.42615 12.8859 2.42615 11.204C2.42615 9.52212 3.08976 7.90816 4.27284 6.71272C5.46517 5.52375 7.0803 4.85608 8.76413 4.85608C10.448 4.85608 12.0631 5.52375 13.2554 6.71272L14.5664 8.02369L15.8774 6.71272C17.0697 5.52375 18.6848 4.85608 20.3687 4.85608C22.0525 4.85608 23.6676 5.52375 24.8599 6.71272C26.043 7.90816 26.7066 9.52212 26.7066 11.204C26.7066 12.8859 26.043 14.4999 24.8599 15.6953L15.4282 25.1391C15.3148 25.2516 15.1803 25.3407 15.0324 25.4011C14.8845 25.4615 14.7261 25.4921 14.5664 25.4912Z" fill="white"/>
</g>
</svg>
