<svg width="29" height="36" viewBox="0 0 29 36" fill="none" xmlns="http://www.w3.org/2000/svg">
<g id="&#240;&#159;&#166;&#134; icon &#34;courses&#34;">
<path id="Vector" fill-rule="evenodd" clip-rule="evenodd" d="M29 0V26.9286H24.8571V33.1429H27.9643V35.2143H5.17857C3.66643 35.2143 2.21643 34.5514 1.24079 33.3914C0.435007 32.4386 0 31.2579 0 30.0357V5.17857C0 2.32 2.32 0 5.17857 0H29ZM22.7857 26.9286H5.40642C3.77 26.9286 2.35936 28.0265 2.11286 29.4971C2.09008 29.6629 2.07143 29.8286 2.07143 29.9943V30.0357C2.07143 30.7814 2.32 31.465 2.81714 32.045C3.41786 32.7493 4.26715 33.1429 5.17857 33.1429H22.7857V31.0714H4.41215V29H22.7857V26.9286ZM26.9286 2.07143H5.17857C3.47793 2.07143 2.07143 3.45927 2.07143 5.17857V25.955C3.00358 25.2714 4.1615 24.8571 5.40642 24.8571H26.9286L26.9286 2.07143ZM21.7494 16.5714V18.6429H7.24938V16.5714H21.7494V16.5714ZM22.7851 6.21431V14.5H6.21369V6.2143H22.7851L22.7851 6.21431ZM20.7137 8.28572H8.2851V12.4286H20.7137V8.28572Z" fill="white"/>
</g>
</svg>
